<?xml version="1.0" encoding="utf-8"?>
<!-- Generator: Adobe Illustrator 21.0.0, SVG Export Plug-In . SVG Version: 6.00 Build 0)  -->
<svg version="1.1" id="Layer_1" xmlns="http://www.w3.org/2000/svg" xmlns:xlink="http://www.w3.org/1999/xlink" x="0px" y="0px"
	 viewBox="0 0 1024 768" style="enable-background:new 0 0 1024 768;" xml:space="preserve">
<style type="text/css">
	.st0{opacity:0.2;}
	.st1{fill:#272A31;}
	.st2{fill:none;stroke:#272A31;stroke-width:2.8346;stroke-miterlimit:10;}
	.st3{opacity:0.2;fill:#EC5242;}
</style>
<image style="display:none;overflow:visible;" width="1299" height="1300" xlink:href="3DBB6C2F.jpg"  transform="matrix(1 0 0 1 12 0)">
</image>
<g class="st0">
	<path class="st1" d="M763.3,588.1c-3.3,0.7-5.5,3.9-4.8,7.2c0.2,0.9,0.5,1.7,1,2.4l-42.4,35.9c-1.4-1.4-3.4-2.1-5.5-1.7
		c-3.3,0.7-5.5,3.9-4.8,7.2c0.7,3.3,3.9,5.5,7.2,4.8c3.3-0.7,5.5-3.9,4.8-7.2c-0.1-0.6-0.3-1.1-0.6-1.6l42.6-36.1
		c1.3,1,3.1,1.5,4.9,1.1c3.3-0.7,5.5-3.9,4.8-7.2C769.8,589.6,766.6,587.4,763.3,588.1z"/>
	<path class="st1" d="M22,105.3c1-0.2,1.8-0.6,2.6-1.2l144.7,136.6c-0.9,1.3-1.3,3-1,4.7c0.7,3.3,3.9,5.5,7.2,4.8
		c3.3-0.7,5.5-3.9,4.8-7.2c-0.4-1.9-1.6-3.4-3.1-4.2l18.5-52.9l107.7,126.5l-64.1-19.3c0.1-0.7,0.1-1.4,0-2.1
		c-0.7-3.3-3.9-5.5-7.2-4.8c-3.3,0.7-5.5,3.9-4.8,7.2c0.7,3.3,3.9,5.5,7.2,4.8c2-0.4,3.5-1.7,4.3-3.4l66.8,20.1l28,32.9l-50.7,77.2
		c-1.1-0.5-2.4-0.7-3.7-0.4c-3.3,0.7-5.5,3.9-4.8,7.2c0.7,3.3,3.9,5.5,7.2,4.8c1-0.2,1.8-0.6,2.6-1.2l56.4,53.5
		c-0.4,1-0.5,2.2-0.3,3.3c0.7,3.3,3.9,5.5,7.2,4.8c2.5-0.5,4.4-2.5,4.8-4.9l192.2-14.6l5.7,20.7c-2.7,1-4.4,3.9-3.8,6.9
		c0.2,1.1,0.7,2,1.4,2.8L427.5,619.9l-18.9-13.1l38.9-24.5c1.3,1,3.1,1.5,4.9,1.2c3.3-0.7,5.5-3.9,4.8-7.2c-0.7-3.3-3.9-5.5-7.2-4.8
		c-2.7,0.5-4.7,2.8-4.9,5.4L369,565.8l117.2-40.2c1.2,2.4,3.9,3.7,6.6,3.2c3.3-0.7,5.5-3.9,4.8-7.2c-0.7-3.3-3.9-5.5-7.2-4.8
		c-3.3,0.7-5.4,3.8-4.8,7.1L365,565.2l-21-3.1L88.4,385.2c0.6-1.2,0.8-2.5,0.5-3.9c-0.7-3.3-3.9-5.5-7.2-4.8
		c-3.3,0.7-5.5,3.9-4.8,7.2c0.7,3.3,3.9,5.5,7.2,4.8c1.3-0.3,2.4-0.9,3.3-1.8L340,561.5l-144.1-21c0-0.4,0-0.8-0.1-1.2
		c-0.7-3.3-3.9-5.5-7.2-4.8c-3.3,0.7-5.5,3.9-4.8,7.2c0.7,3.3,3.9,5.5,7.2,4.8c0.8-0.2,1.6-0.5,2.2-0.9l54.6,59.7L196.4,623
		c-1.2-2.4-3.9-3.8-6.7-3.3c-3.3,0.7-5.5,3.9-4.8,7.2c0.7,3.3,3.9,5.5,7.2,4.8c1.5-0.3,2.8-1.1,3.6-2.2l137.8,77.8l-46.2,43
		c-1.4-1.1-3.2-1.6-5-1.2c-3.3,0.7-5.5,3.9-4.8,7.2c0.7,3.3,3.9,5.5,7.2,4.8c3.1-0.6,5.2-3.4,4.9-6.5l85.3-19.8
		c1.3,2,3.8,3.1,6.3,2.6c3.3-0.7,5.5-3.9,4.8-7.2c-0.7-3.3-3.9-5.5-7.2-4.8c-1.1,0.2-2,0.7-2.8,1.4l-31.7-26.9l32.3-30.1l97.3,22.8
		l-4.5,30.2c-0.6-0.1-1.2,0-1.8,0.1c-3.3,0.7-5.5,3.9-4.8,7.2c0.7,3.3,3.9,5.5,7.2,4.8c3.3-0.7,5.5-3.9,4.8-7.2
		c-0.4-2.1-1.8-3.7-3.6-4.4l4.5-30.2l75.5,17.7c-0.1,0.6,0,1.2,0.1,1.8c0.7,3.3,3.9,5.5,7.2,4.8s5.5-3.9,4.8-7.2
		c-0.1-0.5-0.3-1-0.5-1.4L670,625.3c1.4,1.1,3.2,1.6,5.1,1.3c3.3-0.7,5.5-3.9,4.8-7.2c-0.2-0.8-0.5-1.5-0.9-2.2l41.2-36.7
		c1.4,1.1,3.2,1.7,5.1,1.3c3.3-0.7,5.5-3.9,4.8-7.2c0-0.1,0-0.2-0.1-0.2l98.4-40.2l39,48.2c-1.3,1.4-1.9,3.3-1.5,5.3
		c0.7,3.3,3.9,5.5,7.2,4.8c3.3-0.7,5.5-3.9,4.8-7.2s-3.9-5.5-7.2-4.8c-0.7,0.1-1.3,0.4-1.9,0.7l-38.7-47.8l10-4.1
		c1.2,2.4,3.9,3.9,6.7,3.3c3.3-0.7,5.5-3.9,4.8-7.2s-3.9-5.5-7.2-4.8c-3.2,0.6-5.4,3.7-4.8,6.9L829,532l-55.1-68.1
		c1.3-1.4,1.9-3.3,1.5-5.3c-0.3-1.4-1-2.6-2.1-3.5l39.2-63.8l76.1,69.2c-0.9,1.3-1.3,3-1,4.7c0.7,3.3,3.9,5.5,7.2,4.8
		c3.3-0.7,5.5-3.9,4.8-7.2c-0.5-2.6-2.6-4.5-5.1-4.9l-11.3-174.8c3-0.9,5-3.9,4.3-7.1c-0.7-3.3-3.9-5.5-7.2-4.8s-5.5,3.9-4.8,7.2
		c0,0.2,0.1,0.3,0.1,0.5l-123.3,55.4l-109.2-99.2c0.9-1.3,1.2-2.9,0.9-4.6c-0.7-3.3-3.9-5.5-7.2-4.8c-3.3,0.7-5.5,3.9-4.8,7.2
		c0.6,3.3,3.8,5.4,7,4.8l40.7,123.5c-2.4,1.2-3.8,3.9-3.2,6.6c0.4,2.2,2.1,4,4.1,4.6l-16,94.3l-31.7,2.4l-25.3-90.9
		c2.4-1.2,3.8-3.9,3.2-6.6c-0.7-3.3-3.9-5.5-7.2-4.8c-3.3,0.7-5.5,3.9-4.8,7.2c0.6,3.3,3.8,5.4,7,4.8l25.1,90.4l-85.5,6.5
		l-25.6-92.6c2.4-1.2,3.7-3.9,3.2-6.6c-0.7-3.3-3.9-5.5-7.2-4.8c-2,0.4-3.5,1.7-4.3,3.4l-162-48.7l51.6-78.7l43.4,25.5
		c-0.4,1.1-0.6,2.3-0.3,3.5c0.7,3.3,3.9,5.5,7.2,4.8c3.3-0.7,5.5-3.9,4.8-7.2c-0.7-3.3-3.9-5.5-7.2-4.8c-1.5,0.3-2.7,1.1-3.6,2.2
		l-43.3-25.4l70.5-107.4c1.1,0.5,2.4,0.7,3.7,0.4c3.3-0.7,5.5-3.9,4.8-7.2s-3.9-5.5-7.2-4.8c-3.3,0.7-5.4,3.8-4.8,7.1l-72.1,25.1
		c-1.2-2.3-3.9-3.7-6.6-3.2c-3.3,0.7-5.5,3.9-4.8,7.2c0.7,3.3,3.9,5.5,7.2,4.8c3.3-0.7,5.4-3.8,4.8-7.1l72.1-25.1
		c0.3,0.7,0.8,1.2,1.3,1.7l-70.5,107.5L303.2,188L256.4,21.9c2.5-1.1,4-3.9,3.5-6.8c-0.7-3.3-3.9-5.5-7.2-4.8s-5.5,3.9-4.8,7.2
		c0.4,1.9,1.6,3.4,3.1,4.2l-39.3,112.6l-49.5-29l40.3-44.1c1.3,0.9,2.9,1.2,4.6,0.9c3.3-0.7,5.5-3.9,4.8-7.2
		c-0.7-3.3-3.9-5.5-7.2-4.8c-3.1,0.6-5.2,3.4-4.9,6.5l-86.2,20.2l-12-7.1c0.4-1.1,0.6-2.3,0.3-3.5c-0.7-3.3-3.9-5.5-7.2-4.8
		c-3.3,0.7-5.5,3.9-4.8,7.2c0.7,3.3,3.9,5.5,7.2,4.8c0.7-0.1,1.4-0.4,2-0.8l5.3,6.3l-78,18.2c-1.1-2.7-3.9-4.3-6.9-3.7
		c-3.3,0.7-5.5,3.9-4.8,7.2C15.5,103.8,18.7,106,22,105.3z M196.3,184l16.4-47l88.9,52.2l37.8,134.1l-33-9.9L196.3,184z M308.7,316
		l31.4,9.4l2.5,8.7l-8,12.2L308.7,316z M342.1,326.1l4.8,1.4l-3,4.6L342.1,326.1z M349.6,364.1l-13.9-16.3l7.4-11.3l7.6,26.9
		C350.4,363.6,350,363.8,349.6,364.1z M763.4,461.2c0.3,1.1,0.8,2.1,1.5,2.8l-75.3,96.5l-35.4-14.7l-0.7-2.4l12.7-74.8L763.4,461.2z
		 M676.9,615.3c-1-0.6-2.3-0.9-3.5-0.8l-6.2-22.3l23-29.5l14.1,5.9L676.9,615.3z M553.4,510.2c0.5-0.1,1-0.3,1.5-0.5l79.3,113.5
		c-1,0.9-1.6,2.2-1.8,3.5l-75.9-0.3l-3.2-116.1C553.4,510.2,553.4,510.2,553.4,510.2z M641.5,622.3c-0.3-0.2-0.7-0.4-1.1-0.5
		l12.6-74.2l12.3,44.2L641.5,622.3z M654.9,548l33.6,14L666.6,590L654.9,548z M691.4,561.2l70.1-89.9L705.3,567L691.4,561.2z
		 M638.6,621.5c-0.4,0-0.9,0-1.3,0.1c-0.5,0.1-1,0.3-1.5,0.5l-79.3-113.5c0.4-0.4,0.7-0.8,1-1.3l93.8,39.1L638.6,621.5z M549,509.4
		c0.7,0.5,1.6,0.8,2.5,0.9l3.2,116.1l-69.1-0.3l1.5-10.2c0.4,0,0.8,0,1.2-0.1c3.3-0.7,5.5-3.9,4.8-7.2s-3.9-5.5-7.2-4.8
		c-3.3,0.7-5.5,3.9-4.8,7.2c0.5,2.3,2.1,4,4.2,4.7l-1.6,10.5l-47.8-0.2l-7-4.8L549,509.4z M556,705.4c-1.1,0.2-2.1,0.8-2.9,1.5
		L481,657l4.3-29.1l69.4,0.3l2.1,77.1C556.6,705.3,556.3,705.3,556,705.4z M479.4,655.8l-40.7-28.2l44.8,0.2L479.4,655.8z
		 M432.8,625.8l-8.9,0l3.8-3.5L432.8,625.8z M426.1,621.2l-4.9,4.5l-42.4-0.2l28-17.7L426.1,621.2z M306,663
		c-0.8,0.2-1.6,0.5-2.2,0.9l-13-14.3l33.9,8l-12.5,7.9C310.8,663.6,308.4,662.5,306,663z M288.5,647.3l-18.6-20.4l102.7,0.5
		l-45.8,28.9L288.5,647.3z M285.4,646.5l-85.1-20l67.1,0.3L285.4,646.5z M268.2,625.1L251,606.2L353.7,571l51.6,35.7l-29.8,18.8
		L268.2,625.1z M376,627.4l43.3,0.2L376,667.8l-46.7-11L376,627.4z M445.2,578.7c0.2,0.8,0.5,1.6,1,2.2l-39.2,24.8l-51.1-35.4
		l9.4-3.2L445.2,578.7z M361.3,566.5l-7.3,2.5l-6.5-4.5L361.3,566.5z M194.5,544.5c0.5-0.6,0.9-1.3,1.1-2.1l147.7,21.5l8.5,5.9
		l-102.2,35L194.5,544.5z M265.7,625l-68.8-0.3l52.2-17.9L265.7,625z M196.6,627.9c0-0.1,0.1-0.2,0.1-0.3l90.8,21.3l14.8,16.2
		c-1.1,1.4-1.6,3.2-1.2,5c0.7,3.3,3.9,5.5,7.2,4.8c0.9-0.2,1.8-0.6,2.5-1.1l30.6,26.1l-6.6,6.1L196.6,627.9z M289.2,752.9
		c-0.2-0.4-0.4-0.8-0.6-1.2l46.6-43.4l38.8,21.9c-0.2,0.8-0.2,1.6,0,2.4c0,0.2,0.1,0.4,0.1,0.6L289.2,752.9z M374.8,728.2
		c-0.1,0.1-0.1,0.2-0.2,0.3l-38-21.5l6.3-5.9L374.8,728.2z M342.9,698.7l-30.7-26.1c0.9-1.3,1.4-3,1-4.7c0-0.2-0.1-0.5-0.2-0.7
		l14.1-8.9l47.3,11.1L342.9,698.7z M378.2,668.3l43.8-40.7l13.5,0.1l43.6,30.2l-4.9,33L378.2,668.3z M475.9,691.2l4.8-32.3
		l71.2,49.3c-0.1,0.2-0.3,0.5-0.4,0.7L475.9,691.2z M561.7,707.2c-0.8-0.9-1.9-1.5-3-1.8l-2.1-77.3l75.8,0.3c0,0.1,0,0.2,0,0.3
		c0.7,3.3,3.9,5.5,7.2,4.8s5.5-3.9,4.8-7.2c-0.2-1.2-0.8-2.2-1.6-3l22.9-29.4l5.8,20.9c-2.7,1.1-4.4,3.9-3.8,6.9
		c0.2,0.8,0.5,1.5,0.9,2.2L561.7,707.2z M679.8,614.1l26.3-44.8l12.1,5c-0.2,0.9-0.3,1.8-0.1,2.7c0.2,0.8,0.5,1.5,0.9,2.2
		L679.8,614.1z M827.2,532.8l-97.9,39.9c-1.3-2.2-3.8-3.4-6.4-2.9c-1.8,0.3-3.2,1.4-4,2.8l-11.8-4.9l60.1-102.2
		c1.1,0.4,2.3,0.6,3.5,0.3c0.7-0.1,1.3-0.4,1.9-0.7L827.2,532.8z M892.5,458.1c-1,0.2-1.8,0.6-2.6,1.2l-76.4-69.4L879.2,283
		c0.7,0.3,1.5,0.5,2.2,0.5L892.7,458C892.6,458,892.5,458,892.5,458.1z M876.4,280.6c0.3,0.5,0.7,1,1.2,1.4l-65.5,106.6l-58.2-52.9
		L876.4,280.6z M681.6,360.7l-40.7-123.5c0.4-0.2,0.8-0.4,1.1-0.7l108.6,98.7l-62.9,28.2C686.4,361.4,684,360.2,681.6,360.7z
		 M682.5,372.8c0.4,0,0.9,0,1.3-0.1c3.3-0.7,5.5-3.9,4.8-7.2c0-0.2-0.1-0.3-0.1-0.5l63.6-28.6l59.1,53.6l-39.4,64
		c-1.1-0.5-2.3-0.6-3.6-0.4c-2.8,0.5-4.7,2.9-4.9,5.5l-96.6,7.3L682.5,372.8z M664.4,468.7l-11.9,70.5l-19-68.2L664.4,468.7z
		 M631.7,471.2l20.1,72.3l-0.2,1.2l-93.4-38.9c0.2-0.9,0.3-1.8,0.1-2.7c-0.6-3-3.4-5.1-6.4-4.9l-5.7-20.5L631.7,471.2z M352.2,490.5
		c0-0.2,0-0.3-0.1-0.5c-0.7-3.3-3.9-5.5-7.2-4.8c-1.5,0.3-2.7,1.1-3.6,2.2l-56-53.2c0.6-0.8,0.9-1.7,1.1-2.7l78.7-2c0,0,0,0.1,0,0.1
		c0.7,3.3,3.9,5.5,7.2,4.8s5.5-3.9,4.8-7.2c-0.7-3.3-3.9-5.5-7.2-4.8c-2.7,0.5-4.6,2.7-4.9,5.2l-75.4,1.9L511.6,380
		c1,2.7,3.9,4.3,6.8,3.8l25.5,92.2L352.2,490.5z M511.3,376.9c-0.1,0.4-0.1,0.9,0,1.3L286,428.5c-0.4-0.9-0.9-1.7-1.6-2.3l50.4-76.8
		l13.7,16c-0.9,1.3-1.3,3-1,4.7c0.7,3.3,3.9,5.5,7.2,4.8c3.3-0.7,5.5-3.9,4.8-7.2c-0.6-3.2-3.7-5.3-6.9-4.9l-8-28.4l4.2-6.4
		L511.3,376.9z M399.8,246.8l-51.9,79.1l-6.4-1.9L304,190.6L399.8,246.8z M252.8,22.3c0.6,0.1,1.2,0.1,1.9,0.1L301,186.7l-87.6-51.4
		L252.8,22.3z M211.1,136.1L195,182.4l-49.7-58.4l15.8-17.3L211.1,136.1z M144,122.5l-36.2-42.6l5.5-1.3l46.1,27L144,122.5z
		 M200.3,58.3c0.2,0.6,0.5,1.1,0.9,1.6l-40.6,44.4L115.9,78L200.3,58.3z M100.5,71.4c0-0.1,0.1-0.1,0.1-0.2l10.4,6.1l-4.6,1.1
		L100.5,71.4z M142.8,123.9l-15.4,16.9c-1.3-0.9-2.9-1.2-4.6-0.9c-3.3,0.7-5.5,3.9-4.8,7.2c0.7,3.3,3.9,5.5,7.2,4.8
		c3.3-0.7,5.5-3.9,4.8-7.2c-0.2-1-0.6-1.9-1.2-2.7l15.3-16.7l50.3,59.1l-18.8,53.9c-0.7-0.1-1.5-0.1-2.3,0c-1,0.2-1.8,0.6-2.6,1.2
		L25.8,102.8c0.8-1.1,1.2-2.5,1.1-4l78.9-18.4L142.8,123.9z"/>
</g>
<circle class="st1" cx="1558.5" cy="1496.5" r="9.5"/>
<circle class="st1" cx="1698.5" cy="1496.5" r="9.5"/>
<circle class="st1" cx="1834.5" cy="1519.5" r="9.5"/>
<circle class="st1" cx="2090.5" cy="1737.5" r="9.5"/>
<circle class="st1" cx="2066.5" cy="1867.5" r="9.5"/>
<circle class="st1" cx="1988.5" cy="1512.5" r="9.5"/>
<circle class="st1" cx="1895.5" cy="2007.5" r="9.5"/>
<circle class="st1" cx="1813.5" cy="1895.5" r="9.5"/>
<circle class="st1" cx="1926.5" cy="1636.5" r="9.5"/>
<circle class="st1" cx="1409.5" cy="1599.5" r="9.5"/>
<circle class="st1" cx="1299.5" cy="1561.5" r="9.5"/>
<circle class="st1" cx="1207.5" cy="1612.5" r="9.5"/>
<circle class="st1" cx="1263.5" cy="1652.5" r="9.5"/>
<circle class="st1" cx="1041.5" cy="1591.5" r="9.5"/>
<circle class="st1" cx="1063.5" cy="1690.5" r="9.5"/>
<circle class="st1" cx="971.5" cy="1771.5" r="9.5"/>
<circle class="st1" cx="1290.5" cy="2202.5" r="9.5"/>
<circle class="st1" cx="933.5" cy="2059.5" r="9.5"/>
<circle class="st1" cx="1159.5" cy="1815.5" r="9.5"/>
<circle class="st1" cx="1263.5" cy="1983.5" r="9.5"/>
<circle class="st1" cx="1383.5" cy="1997.5" r="9.5"/>
<circle class="st1" cx="1518.5" cy="2016.5" r="9.5"/>
<circle class="st1" cx="1756.5" cy="1983.5" r="9.5"/>
<circle class="st1" cx="1589.5" cy="2192.5" r="9.5"/>
<circle class="st1" cx="2066.5" cy="2616.5" r="9.5"/>
<circle class="st1" cx="1765.5" cy="2079.5" r="9.5"/>
<circle class="st1" cx="1925.5" cy="2232.5" r="9.5"/>
<circle class="st1" cx="1895.5" cy="2600.5" r="9.5"/>
<circle class="st1" cx="2190.5" cy="2590.5" r="9.5"/>
<circle class="st1" cx="2000.5" cy="2323.5" r="9.5"/>
<circle class="st1" cx="2181.5" cy="2140.5" r="9.5"/>
<circle class="st1" cx="2047.5" cy="2488.5" r="9.5"/>
<circle class="st1" cx="1810.5" cy="2646.5" r="9.5"/>
<circle class="st1" cx="1508.5" cy="2401.5" r="9.5"/>
<circle class="st1" cx="1644.5" cy="2382.5" r="9.5"/>
<circle class="st1" cx="1353.5" cy="1599.5" r="9.5"/>
<circle class="st1" cx="1634.5" cy="1672.5" r="9.5"/>
<circle class="st1" cx="1503.5" cy="1813.5" r="9.5"/>
<circle class="st1" cx="1601.5" cy="1803.5" r="9.5"/>
<circle class="st1" cx="1679.5" cy="1732.5" r="9.5"/>
<line class="st2" x1="1299" y1="1561" x2="1207" y2="1612"/>
<line class="st2" x1="1503.5" y1="1813.5" x2="1263.5" y2="1652.5"/>
<line class="st2" x1="1409.5" y1="1599.5" x2="1503.5" y2="1813.5"/>
<line class="st2" x1="1159.5" y1="1815.5" x2="1409.5" y2="1599.5"/>
<line class="st2" x1="1263.5" y1="1652.5" x2="1353.5" y2="1599.5"/>
<line class="st2" x1="1067.5" y1="1690.5" x2="1263.5" y2="1652.5"/>
<line class="st2" x1="1159.5" y1="1815.5" x2="1041.5" y2="1591.5"/>
<line class="st2" x1="1353" y1="1599" x2="1383" y2="1997"/>
<line class="st2" x1="1409.5" y1="1599.5" x2="1263.5" y2="1983.5"/>
<line class="st2" x1="1352.5" y1="1598.5" x2="1159.5" y2="1815.5"/>
<line class="st2" x1="1558" y1="1496" x2="1353" y2="1599"/>
<line class="st2" x1="1503.5" y1="1813.5" x2="1557.5" y2="1495.5"/>
<line class="st2" x1="2090" y1="1738" x2="1557" y2="1496"/>
<line class="st2" x1="1697.5" y1="1496.5" x2="1634.5" y2="1672.5"/>
<line class="st2" x1="2089.5" y1="1737.5" x2="1409.5" y2="1599.5"/>
<line class="st2" x1="1503" y1="1814" x2="1518" y2="2017"/>
<line class="st2" x1="1925.5" y1="2232.5" x2="1518.5" y2="2016.5"/>
<line class="st2" x1="1895.5" y1="2007.5" x2="1518.5" y2="2016.5"/>
<line class="st2" x1="1813.5" y1="1891.5" x2="1895.5" y2="2007.5"/>
<line class="st2" x1="1756.5" y1="1983.5" x2="1895.5" y2="2007.5"/>
<line class="st2" x1="971" y1="1771" x2="933" y2="2059"/>
<line class="st2" x1="1159.5" y1="1815.5" x2="933.5" y2="2059.5"/>
<line class="st2" x1="1263.5" y1="1983.5" x2="933.5" y2="2059.5"/>
<line class="st2" x1="1290.5" y1="2202.5" x2="970.5" y2="1770.5"/>
<line class="st2" x1="1263.5" y1="1983.5" x2="1290.5" y2="2202.5"/>
<line class="st2" x1="1159.5" y1="1815.5" x2="1813.5" y2="1894.5"/>
<line class="st2" x1="2181" y1="2140" x2="1557" y2="1496"/>
<line class="st2" x1="1895.5" y1="2007.5" x2="1508.5" y2="2401.5"/>
<line class="st2" x1="2190.5" y1="2590.5" x2="2000.5" y2="2323.5"/>
<line class="st2" x1="1810.5" y1="2646.5" x2="2000.5" y2="2323.5"/>
<line class="st2" x1="2190.5" y1="2590.5" x2="1895.5" y2="2600.5"/>
<line class="st2" x1="2066.5" y1="2616.5" x2="1765.5" y2="2077.5"/>
<line class="st2" x1="2047.5" y1="2488.5" x2="1895.5" y2="2600.5"/>
<line class="st2" x1="1589.5" y1="2192.5" x2="2066.5" y2="2616.5"/>
<line class="st2" x1="1810.5" y1="2646.5" x2="1765.5" y2="2077.5"/>
<line class="st2" x1="1601.5" y1="1803.5" x2="2089.5" y2="1737.5"/>
<line class="st2" x1="1926.5" y1="1635.5" x2="1679.5" y2="1730.5"/>
<line class="st2" x1="2066.5" y1="1867.5" x2="1679.5" y2="1730.5"/>
<line class="st2" x1="1926.5" y1="1635.5" x2="1834.5" y2="1519.5"/>
<line class="st2" x1="1988.5" y1="1512.5" x2="1834.5" y2="1517.5"/>
<line class="st2" x1="2090.5" y1="1737.5" x2="1834.5" y2="1517.5"/>
<line class="st2" x1="1988.5" y1="1512.5" x2="1501.5" y2="1813.5"/>
<line class="st2" x1="2066.5" y1="1867.5" x2="1926.5" y2="1636.5"/>
<line class="st2" x1="1508.5" y1="2401.5" x2="1644.5" y2="2382.5"/>
<circle class="st3" cx="932" cy="312" r="16.5"/>
<circle class="st3" cx="765.5" cy="574.5" r="8.5"/>
<circle class="st3" cx="89" cy="246" r="12"/>
<g class="st0">
	<path class="st1" d="M758.5,214.7c1.9-0.3,3.3-1.8,3.5-3.6L866.2,162c1,1,2.4,1.6,3.9,1.3c1.2-0.2,2.2-0.9,2.8-1.8l52.3,22.6
		l11.4,152.7c-2.1,0.6-3.5,2.7-3.1,4.9c0.4,2.3,2.6,3.9,5,3.5c2.3-0.4,3.9-2.6,3.5-5c-0.2-1-0.7-1.9-1.4-2.5l63.3-115.9
		c0.7,0.3,1.5,0.4,2.2,0.2c2.3-0.4,3.9-2.6,3.5-5c-0.4-2.3-2.6-3.9-4.9-3.5L915.8,17.5c1.2-0.9,1.8-2.5,1.6-4.1
		c-0.4-2.3-2.6-3.9-5-3.5s-3.9,2.6-3.5,5c0,0.3,0.1,0.6,0.2,0.8l-46.9,29.8c-1-1-2.4-1.5-3.8-1.3c-2.3,0.4-3.9,2.6-3.5,5
		c0.4,2.3,2.6,3.9,5,3.5c2.3-0.4,3.9-2.6,3.5-5c0-0.3-0.1-0.6-0.2-0.8L910,17.1c0.3,0.3,0.7,0.6,1.2,0.9l-32.9,110.4l-81.8-56.7
		c0.4-0.8,0.5-1.7,0.4-2.6c-0.4-2.3-2.6-3.9-5-3.5c-2.3,0.4-3.9,2.6-3.5,5c0.4,2.3,2.6,3.9,5,3.5c0.8-0.1,1.6-0.5,2.1-1l82.3,57
		l-7.4,24.8c-0.6-0.1-1.1-0.2-1.7-0.1c-2.3,0.4-3.9,2.6-3.5,5c0,0.3,0.1,0.5,0.2,0.7l-103.4,48.8c-0.6-2.1-2.7-3.4-4.9-3.1
		c-2.3,0.4-3.9,2.6-3.5,5C753.9,213.6,756.1,215.1,758.5,214.7z M914.4,18.6l88.6,195.6c-0.2,0.1-0.3,0.2-0.5,0.3l-77.5-53.7
		L914.4,18.6z M999.5,214.5L926.7,183l-1.5-20L999.5,214.5z M939,336.9c-0.3-0.1-0.5-0.2-0.8-0.2l-11.3-151.8l74.2,32.1
		c-0.1,0.5-0.1,1,0,1.6c0.2,1,0.6,1.8,1.3,2.4L939,336.9z M912.8,18.6l10.5,141l-43.6-30.2L912.8,18.6z M923.4,161.8l1.5,20.5
		L873.5,160c0.1-0.5,0.1-1.1,0-1.7c-0.2-1.1-0.8-2.1-1.7-2.7l7.3-24.5L923.4,161.8z"/>
	<path class="st1" d="M473.1,344.5c1.7-0.3,2.9-1.5,3.4-3l72.3,6.9c0,0.2,0,0.3,0.1,0.5c0.4,2.3,2.6,3.9,5,3.5
		c2.3-0.4,3.9-2.6,3.5-5c-0.4-2.3-2.6-3.9-5-3.5c-1.6,0.3-2.8,1.4-3.3,2.8l-72.4-6.9c0-0.1,0-0.2,0-0.3c-0.4-2.3-2.6-3.9-5-3.5
		s-3.9,2.6-3.5,5S470.7,344.9,473.1,344.5z"/>
	<ellipse transform="matrix(0.918 -0.3966 0.3966 0.918 9.6922 328.4116)" class="st1" cx="799" cy="140.8" rx="5" ry="5"/>
</g>
</svg>
