<?xml version="1.0" encoding="utf-8"?>
<!-- Generator: Adobe Illustrator 21.0.0, SVG Export Plug-In . SVG Version: 6.00 Build 0)  -->
<svg version="1.1" id="Layer_1" xmlns="http://www.w3.org/2000/svg" xmlns:xlink="http://www.w3.org/1999/xlink" x="0px" y="0px"
	 viewBox="0 0 1024 585" style="enable-background:new 0 0 1024 585;" xml:space="preserve">
<style type="text/css">
	.st0{opacity:0.35;}
	.st1{fill:#191B1E;}
	.st2{fill:#272A31;}
	.st3{fill:none;stroke:#272A31;stroke-width:2.8346;stroke-miterlimit:10;}
</style>
<image style="display:none;overflow:visible;" width="1299" height="1300" xlink:href="D5B5F457.jpg"  transform="matrix(1 0 0 1 12 -183)">
</image>
<g class="st0">
	<path class="st1" d="M878.8,526.5c-0.6,0.8-0.9,1.7-1,2.7L679,534.9c-0.3-1.6-1.2-3-2.6-4c-2.8-1.9-6.6-1.1-8.5,1.7
		s-1.1,6.6,1.7,8.5c1.6,1.1,3.5,1.3,5.2,0.8l24.3,50.4l-165.6-13.3l59-31.7c0.4,0.5,0.9,1,1.5,1.4c2.8,1.9,6.6,1.1,8.5-1.7
		c1.9-2.8,1.1-6.6-1.7-8.5s-6.6-1.1-8.5,1.7c-1.1,1.7-1.3,3.7-0.7,5.5l-61.5,33.1l-43.1-3.5l-18.8-90.4c1.2-0.4,2.2-1.2,3-2.3
		c1.9-2.8,1.1-6.6-1.7-8.5c-2.8-1.9-6.6-1.1-8.5,1.7c-0.5,0.8-0.9,1.7-1,2.6l-77.7,2c-0.5-1-1.2-1.9-2.2-2.5
		c-2.8-1.9-6.6-1.1-8.5,1.7c-1.4,2.1-1.3,4.9,0.1,6.9L246.1,632.5l-18.7-10.6c1.2-2.7,0.3-5.9-2.2-7.6c-0.9-0.6-1.9-0.9-2.9-1
		l5.9-163.9l22.7-4.1l-10.1,44.9c-1.7,0.2-3.3,1.1-4.3,2.7c-1.9,2.8-1.1,6.6,1.7,8.5s6.6,1.1,8.5-1.7c1.5-2.3,1.3-5.3-0.4-7.3
		l61.6-46l-54.4,111.2c-2.5-0.8-5.4,0.1-6.9,2.4c-1.9,2.8-1.1,6.6,1.7,8.5c2.8,1.9,6.6,1.1,8.5-1.7c1.9-2.8,1.1-6.5-1.6-8.4
		l56-114.4l17-12.7L634,375.5c0.4,1.2,1.2,2.3,2.4,3.1c2.8,1.9,6.6,1.1,8.5-1.7c1.9-2.8,1.1-6.6-1.7-8.5c-2.8-1.9-6.6-1.1-8.5,1.7
		c-0.7,1.1-1.1,2.4-1,3.6l-302.2,55l116.7-87.1c0.3,0.3,0.6,0.5,0.9,0.7c2.8,1.9,6.6,1.1,8.5-1.7c1.9-2.8,1.1-6.6-1.7-8.5
		s-6.6-1.1-8.5,1.7c-0.5,0.7-0.8,1.4-0.9,2.2l-80.8-3.6l23.9-48.8c2.5,0.8,5.4-0.1,7-2.4c1.9-2.8,1.1-6.6-1.7-8.5
		c-2.8-1.9-6.6-1.1-8.5,1.7c-0.8,1.3-1.2,2.7-1,4.1l-152.5,42.4l2.3-63.1c1.7-0.2,3.4-1.1,4.4-2.7c1.9-2.8,1.1-6.6-1.7-8.5
		c-2.8-1.9-6.6-1.1-8.5,1.7c-1.7,2.6-1.2,6.1,1.1,8.1l-46.3,74.3c-2.3-0.4-4.8,0.5-6.2,2.6c-1.9,2.8-1.1,6.6,1.7,8.5
		c2.8,1.9,6.6,1.1,8.5-1.7c0.6-0.9,0.9-1.9,1-3l41.4-3.4l-1.6,44.1l-84.9,52.7l-18.2-24.5c0.5-0.4,0.9-0.8,1.2-1.3
		c1.9-2.8,1.1-6.6-1.7-8.5c-2.8-1.9-6.6-1.1-8.5,1.7c-1.9,2.8-1.1,6.6,1.7,8.5c1.8,1.2,3.9,1.3,5.7,0.6l18.2,24.5l-65.9,40.9
		c-0.4-0.5-0.8-0.9-1.3-1.2c-2.8-1.9-6.6-1.1-8.5,1.7c-1.9,2.8-1.1,6.6,1.7,8.5c0.4,0.3,0.9,0.5,1.3,0.7L53,617
		c-1.8,0.2-3.4,1.1-4.5,2.7c-1.9,2.8-1.1,6.6,1.7,8.5c0.7,0.4,1.4,0.7,2.1,0.9l-3.2,55.1c-1.8,0.2-3.5,1.1-4.5,2.7
		c-1.9,2.8-1.1,6.6,1.7,8.5c0.1,0,0.1,0.1,0.2,0.1l-41.2,98l-61.7-6.5c-0.1-1.9-1-3.7-2.7-4.8c-2.8-1.9-6.6-1.1-8.5,1.7
		c-1.9,2.8-1.1,6.6,1.7,8.5c2.8,1.9,6.6,1.1,8.5-1.7c0.4-0.6,0.7-1.2,0.8-1.9l61.1,6.4l-4.2,9.9c-2.6-0.9-5.5,0-7.1,2.4
		c-1.9,2.8-1.1,6.6,1.7,8.5s6.6,1.1,8.5-1.7c1.8-2.7,1.2-6.4-1.5-8.3l4.4-10.6l87.2,9.2c0.1,1.9,1,3.7,2.7,4.8
		c1.2,0.8,2.6,1.1,3.9,1l17.4,72.8l-102.7,4.9c-0.3-1.6-1.2-3.1-2.6-4c-2.8-1.9-6.6-1.1-8.5,1.7s-1.1,6.6,1.7,8.5
		c2.2,1.5,5,1.3,7.1-0.2l131.6,115.6c-1.5,2.8-0.7,6.3,1.9,8.1c2.8,1.9,6.6,1.1,8.5-1.7c1.9-2.8,1.1-6.6-1.7-8.5
		c-0.1-0.1-0.3-0.2-0.4-0.2l48-126.3l147.4-7.1c0.3,1.5,1.2,2.9,2.6,3.9c2.8,1.9,6.6,1.1,8.5-1.7s1.1-6.6-1.7-8.5
		c-2.8-1.8-6.5-1.1-8.4,1.5l-116.1-58.5c0.8-2.5-0.1-5.4-2.4-7c-1.9-1.3-4.3-1.3-6.2-0.4l-55.4-78l20.7-24.1l82.1,46.4
		c-0.8,2.5,0.1,5.4,2.4,7c2.8,1.9,6.6,1.1,8.5-1.7c1.9-2.8,1.1-6.6-1.7-8.5c-2.8-1.8-6.5-1.1-8.4,1.6l-81.7-46.2l55.9-65l83.6,47.4
		c-0.8,2.5,0.1,5.4,2.4,6.9c2.8,1.9,6.6,1.1,8.5-1.7c1.1-1.7,1.3-3.7,0.7-5.5l149-80.1l19.1,92.1l-48.7,12.7c-0.4-1.1-1.2-2-2.2-2.7
		c-2.8-1.9-6.6-1.1-8.5,1.7s-1.1,6.6,1.7,8.5c2.8,1.9,6.6,1.1,8.5-1.7c0.8-1.2,1.1-2.7,1-4l48.6-12.6l26.1,125.8
		c-1.2,0.4-2.2,1.2-3,2.3c-1.9,2.8-1.1,6.6,1.7,8.5c2.8,1.9,6.6,1.1,8.5-1.7c1.9-2.8,1.1-6.6-1.6-8.4l33.3-68.7
		c2.5,0.8,5.4-0.1,6.9-2.4c1.9-2.8,1.1-6.6-1.7-8.5c-2.8-1.9-6.6-1.1-8.5,1.7c-1.9,2.8-1.1,6.6,1.6,8.4l-33.3,68.7
		c-0.7-0.2-1.4-0.3-2.1-0.3L512,695.4l109.5-28.5l150.6,84.4c-1,2.6-0.1,5.6,2.3,7.2c2.8,1.9,6.6,1.1,8.5-1.7s1.1-6.6-1.7-8.5
		c-1.6-1.1-3.5-1.3-5.2-0.8l-51.8-107.4l55.5-14.4l2.7,59.7c-1.5,0.3-3,1.2-3.9,2.6c-1.9,2.8-1.1,6.6,1.7,8.5s6.6,1.1,8.5-1.7
		c1.7-2.6,1.2-6.1-1.1-8.1l46.7-75.2l13.5-3.5c0.4,1.1,1.2,2,2.2,2.7c2.8,1.9,6.6,1.1,8.5-1.7c1.9-2.8,1.1-6.6-1.7-8.5
		s-6.6-1.1-8.5,1.7c-0.4,0.6-0.7,1.3-0.9,2l-8.2-0.7l42.2-68c2.7,1.1,5.8,0.3,7.5-2.2c1.9-2.8,1.1-6.6-1.7-8.5
		S880.7,523.7,878.8,526.5z M700,594.2l21.6,44.8l-99.8,26l-121.6-68.1l30.3-16.3L700,594.2z M527.2,580.3l-28.8,15.5l-7.9-4.4
		l-3-14.3L527.2,580.3z M496.4,596.8l-4.4,2.4l-1.1-5.4L496.4,596.8z M464.2,575.2l21.3,1.7l2.7,13.2l-24.4-13.7
		C464,576.1,464.1,575.6,464.2,575.2z M103,799.1c-1-0.6-2-0.9-3.1-0.9l-15-121.4l35.4-14.6l2.2,1.2l44,61.9L103,799.1z M55.1,629
		c1.2-0.3,2.3-1,3.1-1.9l20.1,11.4l4.6,37.2l-14.2,5.8L55.1,629z M216.8,616c-0.3,0.5-0.5,0.9-0.7,1.4L79.8,593.2
		c0-1.3-0.4-2.7-1.2-3.8l53.9-53.4L216.8,616C216.8,615.9,216.8,616,216.8,616z M75.3,599c0.4-0.1,0.8-0.3,1.1-0.4l43.6,61.3
		l-40-22.6L75.3,599z M118.3,661l-33.6,13.8l-4.4-35.3L118.3,661z M83.1,677.5l14,113.2L69.2,683.2L83.1,677.5z M77.9,597.5
		c0.3-0.3,0.6-0.6,0.8-1c0.3-0.5,0.5-0.9,0.7-1.4l136.3,24.2c0,0.5,0,1.1,0.2,1.6l-94,38.7L77.9,597.5z M220.5,613.5
		c-0.9,0.2-1.7,0.6-2.4,1.1l-84.3-79.8l49.1-48.6l6.1,8.3c-0.3,0.3-0.5,0.6-0.8,0.9c-1.9,2.8-1.1,6.6,1.7,8.5
		c2.8,1.9,6.6,1.1,8.5-1.7c1.9-2.8,1.1-6.6-1.7-8.5c-1.9-1.3-4.3-1.3-6.3-0.3l-6.3-8.5l33.9-33.6l8.3-1.5L220.5,613.5z M77,479.8
		c0.6-1,1-2,1-3.1l86.2-15.7l17.5,23.6l-49.3,48.8l-56-53C76.6,480.3,76.8,480.1,77,479.8z M166.2,460.7l48.7-8.9L183,483.4
		L166.2,460.7z M220.4,449l6.3-6.2l-0.2,5.1L220.4,449z M228.3,447.5l0.2-6.7l30.1-29.8l-7.3,32.3L228.3,447.5z M283.7,333
		c0.5-0.7,0.8-1.4,0.9-2.2l19.3,0.9L274.3,350l3.3-14.4C279.9,336,282.3,335,283.7,333z M307.2,331.7l27.6,1.2l-73,72.3l12-52.8
		L307.2,331.7z M309.9,330l74.3-46.1l-47.7,47.3L309.9,330z M337.3,333.1l25.5,1.1L315,431.7L253.3,443l7.8-34.3L337.3,333.1z
		 M259.4,407.7l-30.8,30.5l2.1-59.1l40.8-25.3L259.4,407.7z M244.9,491c-0.7-0.5-1.5-0.8-2.3-0.9l10.2-45.3l61.2-11.1l-4.4,8.9
		L244.9,491z M312.9,440.3l3.4-7l7.8-1.4L312.9,440.3z M446.4,338c0.1,0.8,0.3,1.5,0.7,2.2l-119.6,89.3l-10.1,1.8l47.5-97L446.4,338
		z M339,331.3l48.9-48.4l-24.2,49.5L339,331.3z M385.9,280.4c0,0.1,0.1,0.2,0.1,0.3l-79.3,49.2l-22-1c-0.2-1.7-1.1-3.4-2.7-4.4
		c-2.8-1.9-6.6-1.1-8.5,1.7c-0.5,0.8-0.9,1.7-1,2.6l-40.1,3.3l0.3-9L385.9,280.4z M232,257.6c0.4,0.2,0.9,0.3,1.3,0.4l-2.3,63.6
		l-42.9,11.9c-0.4-0.7-1-1.2-1.7-1.7c-0.2-0.1-0.3-0.2-0.5-0.3L232,257.6z M189,335.5c0-0.1,0-0.2-0.1-0.3l42-11.7l-0.3,8.6
		L189,335.5z M232.4,333.8l40.2-3.3c0.3,1.6,1.2,3.1,2.6,4.1c0.2,0.1,0.4,0.3,0.6,0.4l-3.7,16.3l-41.3,25.6L232.4,333.8z
		 M228.9,380.3l-2.2,59.8l-9.6,9.5L165,459l-19.9-26.8L228.9,380.3z M143.6,433.2l19.4,26.2l-85.2,15.5c-0.1-0.3-0.1-0.5-0.3-0.8
		L143.6,433.2z M71.6,482.5c1.2,0.1,2.4-0.2,3.4-0.9l56.1,53.1l-53.9,53.4c-0.1-0.1-0.2-0.1-0.2-0.2c-2.8-1.9-6.6-1.1-8.5,1.7
		c-1.9,2.8-1.1,6.6,1.7,8.5c1,0.7,2.1,1,3.2,1l4.6,37l-18.9-10.7c1.2-2.7,0.3-5.9-2.2-7.5c-0.7-0.5-1.4-0.8-2.2-0.9L71.6,482.5z
		 M54,631.9L67,682.1l-12.1,5c-0.5-0.8-1.1-1.4-1.8-1.9c-0.7-0.4-1.4-0.7-2.1-0.9L54,631.9z M7.2,793.7l41-97.5
		c2.4,0.6,5.1-0.3,6.6-2.5c1-1.5,1.2-3.2,0.9-4.9l11.9-4.9l29.8,114.8c-1.1,0.4-2,1.2-2.7,2.2c-0.4,0.6-0.7,1.2-0.8,1.9L7.2,793.7z
		 M13.9,892.6c0.5-0.8,0.9-1.7,1-2.6L118,885l29.1,122c-0.7,0.3-1.4,0.7-1.9,1.2L13.8,892.8C13.8,892.7,13.9,892.7,13.9,892.6z
		 M150.7,1006.7c-0.6-0.1-1.2-0.2-1.8-0.1l-29-121.7l78.6-3.8L150.7,1006.7z M231.9,812.3L348,870.9c-0.1,0.4-0.2,0.9-0.3,1.3
		l-146.6,7l24.5-64.4C228,815.3,230.5,814.4,231.9,812.3z M222.7,804.4c-0.3,0.3-0.6,0.6-0.8,1c-1.9,2.8-1.1,6.6,1.7,8.5
		c0.1,0.1,0.3,0.2,0.4,0.2l-24.8,65.2l-79.7,3.8L102,810c1.1-0.4,2.1-1.2,2.8-2.3c1.6-2.3,1.3-5.4-0.5-7.4l63.2-73.5L222.7,804.4z
		 M167.7,723.8l-41.4-58.3l61.6,34.8L167.7,723.8z M189.1,698.9L123.7,662l-0.7-1l93.6-38.5c0.5,0.8,1.1,1.4,1.8,1.9
		c2.6,1.7,6,1.2,8-1l18.5,10.5L189.1,698.9z M373,487.6c0.1,0.1,0.2,0.2,0.4,0.3c2.8,1.9,6.6,1.1,8.5-1.7c0.8-1.3,1.2-2.7,1-4.1
		l77.2-2c0.2,1,0.6,1.9,1.2,2.7L407,539.8c0,0-0.1-0.1-0.1-0.1c-2.8-1.9-6.6-1.1-8.5,1.7c-1.9,2.8-1.1,6.6,1.7,8.5s6.6,1.1,8.5-1.7
		c1.5-2.2,1.3-5.1-0.3-7.2l52-54.7l-122,192.1c-2.6-1.2-5.8-0.3-7.5,2.1l-83.2-47.2L373,487.6z M340.8,680.4
		c-0.3-0.3-0.5-0.7-0.9-0.9l123.7-194.9c0.9,0.4,1.9,0.6,2.8,0.5l18.7,89.9l-21-1.7c-0.3-1.6-1.2-3.1-2.6-4
		c-2.8-1.9-6.6-1.1-8.5,1.7s-1.1,6.6,1.7,8.5c2.7,1.8,6.4,1.2,8.3-1.4l25.8,14.4l1.6,7.5L340.8,680.4z M511.6,693.6L492.4,601
		l5.9-3.2l120.9,67.8L511.6,693.6z M774.4,748.4c-0.5,0.4-1,0.8-1.4,1.3l-148.9-83.4l98.3-25.6L774.4,748.4z M723.4,638.5
		l-21.3-44.2l76.5,6.2l1.1,23.4L723.4,638.5z M780.4,600.6l55.7,4.5l-3,4.8l-51.7,13.5L780.4,600.6z M786,685.8
		c-0.6-0.2-1.2-0.4-1.8-0.5l-2.7-60.1l50.2-13.1L786,685.8z M847.3,606c0,0.1,0,0.1,0,0.2l-11.6,3l2.5-4L847.3,606z M780.3,598.8
		l-1-22.9c1.5-0.3,3-1.2,3.9-2.6c1.9-2.8,1.1-6.6-1.7-8.5s-6.6-1.1-8.5,1.7s-1.1,6.6,1.7,8.5c0.9,0.6,1.8,0.9,2.8,1l1,22.6
		l-77.3-6.2L676.4,541c0.6-0.4,1.2-1,1.6-1.6c0.6-0.8,0.9-1.7,1-2.7l198.9-5.7c0.2,1.4,0.9,2.6,2.1,3.6l-42.7,68.8L780.3,598.8z"/>
</g>
</svg>
