<?xml version="1.0" encoding="utf-8"?>
<!-- Generator: Adobe Illustrator 21.0.0, SVG Export Plug-In . SVG Version: 6.00 Build 0)  -->
<svg version="1.1" id="Layer_1" xmlns="http://www.w3.org/2000/svg" xmlns:xlink="http://www.w3.org/1999/xlink" x="0px" y="0px"
	 viewBox="0 0 54 54" style="enable-background:new 0 0 54 54;" xml:space="preserve">
<style type="text/css">
	.st0{fill:#FFFFFF;}
</style>
<path class="st0" d="M38.6,27.1c-2.7,0-5.3,0-8,0c0,9,0,17.9,0,26.9c-3.6,0-7.2,0-10.8,0c0-8.9,0-17.8,0-26.9c-1.8,0-3.6,0-5.4,0
	c0-3.7,0-7.2,0-10.9c1.7,0,3.4,0,5.3,0c0-1.3-0.1-2.5,0-3.7c0.1-1.5,0.1-3.1,0.4-4.6c1.2-4.9,4.5-7.6,9.7-7.9c3.1-0.2,6.1,0,9.2,0
	c0.1,0,0.2,0.1,0.3,0.1c0,3,0,6,0,9.2c-1.8,0-3.6,0-5.3,0c-2.3,0-3,0.7-3,3c0,1.3,0,2.5,0,3.9c2.9,0,5.6,0,8.6,0
	C39.3,19.9,38.9,23.4,38.6,27.1z"/>
</svg>
