<?xml version="1.0" encoding="utf-8"?>
<!-- Generator: Adobe Illustrator 21.0.0, SVG Export Plug-In . SVG Version: 6.00 Build 0)  -->
<svg version="1.1" id="Layer_1" xmlns="http://www.w3.org/2000/svg" xmlns:xlink="http://www.w3.org/1999/xlink" x="0px" y="0px"
	 viewBox="0 0 46 41" style="enable-background:new 0 0 46 41;" xml:space="preserve">
<style type="text/css">
	.st0{fill:#283B32;}
</style>
<g>
	<path class="st0" d="M43.7,0.3H2.3c-1.1,0-1.9,0.9-1.9,1.9v5.3c0,1.1,0.9,1.9,1.9,1.9h41.4c1.1,0,1.9-0.9,1.9-1.9V2.3
		C45.6,1.2,44.7,0.3,43.7,0.3z"/>
	<path class="st0" d="M43.7,15.9H2.3c-1.1,0-1.9,0.9-1.9,1.9v5.3c0,1.1,0.9,1.9,1.9,1.9h41.4c1.1,0,1.9-0.9,1.9-1.9v-5.3
		C45.6,16.8,44.7,15.9,43.7,15.9z"/>
	<path class="st0" d="M43.7,31.6H2.3c-1.1,0-1.9,0.9-1.9,1.9v5.3c0,1.1,0.9,1.9,1.9,1.9h41.4c1.1,0,1.9-0.9,1.9-1.9v-5.3
		C45.6,32.4,44.7,31.6,43.7,31.6z"/>
</g>
</svg>
