<?xml version="1.0" encoding="utf-8"?>
<!-- Generator: Adobe Illustrator 21.0.0, SVG Export Plug-In . SVG Version: 6.00 Build 0)  -->
<svg version="1.1" id="Layer_1" xmlns="http://www.w3.org/2000/svg" xmlns:xlink="http://www.w3.org/1999/xlink" x="0px" y="0px"
	 viewBox="0 0 48 48" style="enable-background:new 0 0 48 48;" xml:space="preserve">
<style type="text/css">
	.st0{fill:#EB5342;}
	.st1{fill:#FFFFFF;}
</style>
<circle class="st0" cx="25.3" cy="35.3" r="11.3"/>
<path class="st1" d="M23.7,16.7c0.9-1.1,1.5-2.2,1.9-3.3c0.4-1.1,0.6-2.4,0.6-3.9s-0.2-2.8-0.6-4s-1.1-2.2-1.9-3.3
	c2.5-0.6,4.8-0.2,6.7,1.2s2.9,3.4,2.9,6.1s-1,4.8-2.9,6.1C28.5,16.9,26.2,17.3,23.7,16.7z M34.5,33v-4.7c0-1.7-0.4-3.3-1.3-4.8
	c-0.9-1.5-2.4-2.7-4.5-3.7c5.8,0.7,9.7,1.8,11.8,3.2c2.1,1.4,3.2,3.2,3.2,5.3V33H34.5z M40,18.5v-5h-5v-3h5v-5h3v5h5v3h-5v5H40z
	 M15.8,17c-2.2,0-4-0.7-5.4-2.1c-1.4-1.4-2.1-3.2-2.1-5.4s0.7-4,2.1-5.4s3.2-2.1,5.4-2.1s4,0.7,5.4,2.1c1.4,1.4,2.1,3.2,2.1,5.4
	s-0.7,4-2.1,5.4C19.8,16.3,17.9,17,15.8,17z M0,33v-4.7c0-1.2,0.3-2.2,0.9-3.2c0.6-0.9,1.4-1.7,2.5-2.1c2.4-1.1,4.5-1.8,6.4-2.3
	c1.9-0.5,3.9-0.7,5.9-0.7s4,0.2,5.9,0.7c1.9,0.5,4,1.2,6.4,2.3c1,0.5,1.9,1.2,2.5,2.1c0.6,1,1,2,1,3.2V33H0z M15.8,14
	c1.3,0,2.4-0.4,3.2-1.3c0.8-0.9,1.3-1.9,1.3-3.2S19.8,7.1,19,6.2c-0.9-0.9-1.9-1.3-3.2-1.3s-2.4,0.4-3.2,1.3
	c-0.8,0.8-1.3,1.9-1.3,3.2s0.4,2.4,1.3,3.2C13.4,13.5,14.4,14,15.8,14z M3,30h25.5v-1.7c0-0.5-0.1-1-0.4-1.5s-0.7-0.8-1.3-1.1
	c-2.3-1.1-4.3-1.8-5.9-2.2c-1.6-0.4-3.4-0.5-5.3-0.5s-3.6,0.2-5.2,0.5c-1.6,0.4-3.6,1.1-5.9,2.2c-0.5,0.2-0.9,0.6-1.2,1.1
	S3,27.8,3,28.3V30z M15.8,9.5L15.8,9.5L15.8,9.5L15.8,9.5L15.8,9.5L15.8,9.5L15.8,9.5L15.8,9.5L15.8,9.5z M15.8,30L15.8,30L15.8,30
	L15.8,30L15.8,30L15.8,30L15.8,30L15.8,30L15.8,30z"/>
</svg>
