<?xml version="1.0" encoding="utf-8"?>
<!-- Generator: Adobe Illustrator 21.0.0, SVG Export Plug-In . SVG Version: 6.00 Build 0)  -->
<svg version="1.1" id="Layer_1" xmlns="http://www.w3.org/2000/svg" xmlns:xlink="http://www.w3.org/1999/xlink" x="0px" y="0px"
	 viewBox="0 0 54 54" style="enable-background:new 0 0 54 54;" xml:space="preserve">
<style type="text/css">
	.st0{fill:#EB5342;}
	.st1{fill:#FFFFFF;}
</style>
<g>
	<circle class="st0" cx="41.3" cy="19.5" r="11.3"/>
	<path class="st1" d="M13.1,50c-1.6,0-2.9-0.6-4-1.7c-1.1-1.1-1.7-2.5-1.7-4c0-1.6,0.6-2.9,1.7-4s2.5-1.7,4-1.7c0.5,0,0.9,0,1.2,0.1
		s0.7,0.2,1.1,0.4l4.3-5.3c-0.6-0.8-1.1-1.6-1.5-2.6c-0.4-1-0.4-2-0.3-3.1l-6-2.1c-0.5,0.8-1.2,1.5-2,2s-1.8,0.7-2.8,0.7
		c-1.6,0-2.9-0.6-4-1.7c-1.1-1.1-1.7-2.4-1.7-4s0.6-2.9,1.7-4.1s2.5-1.6,4-1.6c1.6,0,3,0.5,4.1,1.6s1.6,2.4,1.6,4.1c0,0,0,0,0,0.1
		s0,0.1,0,0.1l6.1,2.1c0.6-1.1,1.3-1.9,2.2-2.4c0.9-0.6,1.8-1,2.8-1.2v-6.4c-1.3-0.4-2.3-1.1-3.1-2.1s-1.1-2.2-1.1-3.4
		c0-1.6,0.6-2.9,1.7-4c1.1-1.2,2.4-1.8,4-1.8s2.9,0.6,4,1.6s1.7,2.4,1.7,4c0,1.2-0.4,2.3-1.2,3.4s-1.8,1.8-3,2.1v6.4
		c1,0.2,2,0.6,2.9,1.2s1.6,1.4,2.2,2.4l6-2.1c0,0,0,0,0-0.1s0-0.1,0-0.1c0-1.6,0.6-2.9,1.7-4.1c1.1-1.1,2.5-1.6,4-1.6
		c1.6,0,3,0.5,4,1.6c1.1,1.1,1.7,2.4,1.7,4.1c0,1.6-0.5,2.9-1.7,4c-1.1,1.1-2.5,1.7-4,1.7c-1.1,0-2-0.2-2.8-0.7
		c-0.8-0.5-1.5-1.1-2-2l-6,2.1C33.1,29,33,30,32.7,31c-0.3,1-0.8,1.9-1.5,2.6l4.3,5.3c0.4-0.2,0.7-0.3,1.1-0.4
		c0.4-0.1,0.8-0.1,1.2-0.1c1.6,0,3,0.5,4,1.7c1.1,1.1,1.7,2.5,1.7,4c0,1.6-0.5,2.9-1.7,4c-1.1,1.1-2.5,1.7-4,1.7
		c-1.6,0-2.9-0.6-4-1.7c-1.1-1.1-1.7-2.5-1.7-4c0-0.7,0.1-1.3,0.3-1.8c0.2-0.5,0.4-1,0.8-1.5l-4.3-5.3c-1.1,0.6-2.2,0.9-3.4,0.9
		c-1.2,0-2.4-0.3-3.4-0.9L17.8,41c0.3,0.5,0.6,1,0.8,1.5s0.3,1.1,0.3,1.8c0,1.6-0.5,2.9-1.6,4C16.1,49.4,14.7,50,13.1,50z M7.1,25.7
		c0.8,0,1.4-0.3,1.9-0.8s0.8-1.2,0.8-1.9S9.5,21.6,9,21.1s-1.2-0.8-1.9-0.8s-1.4,0.3-1.9,0.8c-0.5,0.5-0.8,1.1-0.8,1.9
		s0.3,1.4,0.8,1.9S6.3,25.7,7.1,25.7z M13.1,47c0.8,0,1.4-0.3,1.9-0.8s0.8-1.2,0.8-1.9c0-0.8-0.3-1.4-0.8-1.9s-1.2-0.8-1.9-0.8
		c-0.8,0-1.4,0.3-1.9,0.8c-0.5,0.5-0.8,1.1-0.8,1.9s0.3,1.4,0.8,1.9S12.3,47,13.1,47z M25.4,12.4c0.8,0,1.4-0.3,1.9-0.8
		s0.8-1.2,0.8-1.9c0-0.8-0.3-1.4-0.8-1.9S26.2,7,25.4,7S24,7.3,23.5,7.8S22.7,9,22.7,9.7s0.3,1.4,0.8,1.9S24.6,12.4,25.4,12.4z
		 M25.4,33.5c1.2,0,2.3-0.4,3.2-1.3c0.9-0.9,1.3-2,1.3-3.2s-0.4-2.3-1.3-3.2c-0.9-0.9-1.9-1.3-3.2-1.3c-1.2,0-2.3,0.4-3.2,1.3
		s-1.3,1.9-1.3,3.2c0,1.2,0.4,2.3,1.3,3.2C23.1,33.1,24.2,33.5,25.4,33.5z M37.7,47c0.8,0,1.4-0.3,1.9-0.8s0.8-1.2,0.8-1.9
		c0-0.8-0.3-1.4-0.8-1.9s-1.2-0.8-1.9-0.8c-0.8,0-1.4,0.3-1.9,0.8S35,43.6,35,44.3c0,0.8,0.3,1.4,0.8,1.9C36.3,46.7,36.9,47,37.7,47
		z M43.7,25.7c0.8,0,1.4-0.3,1.9-0.8s0.8-1.2,0.8-1.9s-0.3-1.4-0.8-1.9s-1.2-0.8-1.9-0.8c-0.8,0-1.4,0.3-1.9,0.8S41,22.3,41,23
		s0.3,1.4,0.8,1.9S42.9,25.7,43.7,25.7z M25.4,9.7L25.4,9.7L25.4,9.7L25.4,9.7L25.4,9.7L25.4,9.7L25.4,9.7L25.4,9.7L25.4,9.7z
		 M7.1,23L7.1,23L7.1,23L7.1,23L7.1,23L7.1,23L7.1,23L7.1,23L7.1,23z M25.4,29L25.4,29L25.4,29L25.4,29L25.4,29L25.4,29L25.4,29
		L25.4,29L25.4,29z M43.7,23L43.7,23L43.7,23L43.7,23L43.7,23L43.7,23L43.7,23L43.7,23L43.7,23z M13.1,44.3L13.1,44.3L13.1,44.3
		L13.1,44.3L13.1,44.3L13.1,44.3L13.1,44.3L13.1,44.3L13.1,44.3z M37.7,44.3L37.7,44.3L37.7,44.3L37.7,44.3L37.7,44.3L37.7,44.3
		L37.7,44.3L37.7,44.3L37.7,44.3z"/>
</g>
</svg>
