<?xml version="1.0" encoding="utf-8"?>
<!-- Generator: Adobe Illustrator 21.0.0, SVG Export Plug-In . SVG Version: 6.00 Build 0)  -->
<svg version="1.1" id="Layer_1" xmlns="http://www.w3.org/2000/svg" xmlns:xlink="http://www.w3.org/1999/xlink" x="0px" y="0px"
	 viewBox="0 0 48 48" style="enable-background:new 0 0 48 48;" xml:space="preserve">
<style type="text/css">
	.st0{fill:#EB5342;}
	.st1{fill:#FCFCFC;}
</style>
<g>
	<circle class="st0" cx="13" cy="13" r="11.3"/>
	<path class="st1" d="M26.3,46.3c-2.8,0-5.4-0.5-7.8-1.6c-2.4-1-4.6-2.5-6.4-4.3S8.9,36.5,7.8,34s-1.6-5-1.6-7.8s0.5-5.4,1.6-7.8
		s2.5-4.6,4.3-6.4s3.9-3.2,6.4-4.3s5-1.6,7.8-1.6h17c0.8,0,1.5,0.3,2.1,0.9c0.6,0.6,0.9,1.3,0.9,2.1v17c0,2.8-0.5,5.4-1.6,7.8
		c-1,2.4-2.5,4.6-4.3,6.4s-3.9,3.2-6.4,4.3C31.6,45.7,29,46.3,26.3,46.3z M26.3,43.3c4.7,0,8.8-1.6,12-5c3.3-3.3,5-7.3,5-12v-17l0,0
		l0,0h-17c-4.7,0-8.8,1.7-12.1,4.9s-4.9,7.3-4.9,12.1s1.7,8.8,4.9,12C17.5,41.6,21.5,43.3,26.3,43.3z M16.5,32.2h13.7v-4.4l6.3,4.4
		V20.5l-6.3,4.3v-4.3H16.5V32.2z M26.3,26.3L26.3,26.3L26.3,26.3L26.3,26.3L26.3,26.3L26.3,26.3L26.3,26.3L26.3,26.3L26.3,26.3z"/>
</g>
</svg>
