<?xml version="1.0" encoding="utf-8"?>
<!-- Generator: Adobe Illustrator 21.0.0, SVG Export Plug-In . SVG Version: 6.00 Build 0)  -->
<svg version="1.1" id="Layer_1" xmlns="http://www.w3.org/2000/svg" xmlns:xlink="http://www.w3.org/1999/xlink" x="0px" y="0px"
	 viewBox="0 0 48 48" style="enable-background:new 0 0 48 48;" xml:space="preserve">
<style type="text/css">
	.st0{fill:#EB5342;}
	.st1{fill:#FFFFFF;}
</style>
<circle class="st0" cx="39.9" cy="15.5" r="11.3"/>
<path class="st1" d="M11.7,46c-1.6,0-2.9-0.6-4-1.7c-1.1-1.1-1.7-2.5-1.7-4c0-1.6,0.6-2.9,1.7-4s2.5-1.7,4-1.7c0.5,0,0.9,0,1.2,0.1
	s0.7,0.2,1.1,0.4l4.3-5.3c-0.6-0.8-1.1-1.6-1.5-2.6s-0.4-2-0.3-3.1l-6-2.1c-0.5,0.8-1.2,1.5-2,2s-1.8,0.7-2.8,0.7
	c-1.6,0-2.9-0.6-4-1.7C0.6,21.9,0,20.6,0,19c0-1.6,0.6-2.9,1.7-4.1s2.5-1.6,4-1.6c1.6,0,3,0.5,4.1,1.6s1.6,2.4,1.6,4.1
	c0,0,0,0,0,0.1c0,0.1,0,0.1,0,0.1l6.1,2.1c0.6-1.1,1.3-1.9,2.2-2.4c0.9-0.6,1.8-1,2.8-1.2v-6.4c-1.3-0.4-2.3-1.1-3.1-2.1
	s-1.1-2.2-1.1-3.4c0-1.6,0.6-2.9,1.7-4C21.1,0.6,22.4,0,24,0c1.6,0,2.9,0.6,4,1.6s1.7,2.4,1.7,4c0,1.2-0.4,2.3-1.2,3.4
	s-1.8,1.8-3,2.1v6.4c1,0.2,2,0.6,2.9,1.2c0.9,0.6,1.6,1.4,2.2,2.4l6-2.1c0,0,0,0,0-0.1c0-0.1,0-0.1,0-0.1c0-1.6,0.6-2.9,1.7-4.1
	c1.1-1.1,2.5-1.6,4-1.6c1.6,0,3,0.5,4,1.6c1.1,1.1,1.7,2.4,1.7,4.1c0,1.6-0.5,2.9-1.7,4c-1.1,1.1-2.5,1.7-4,1.7
	c-1.1,0-2-0.2-2.8-0.7c-0.8-0.5-1.5-1.1-2-2l-6,2.1c0.2,1.1,0.1,2.1-0.2,3.1c-0.3,1-0.8,1.9-1.5,2.6l4.3,5.3
	c0.4-0.2,0.7-0.3,1.1-0.4s0.8-0.1,1.2-0.1c1.6,0,3,0.5,4,1.7c1.1,1.1,1.7,2.5,1.7,4c0,1.6-0.5,2.9-1.7,4c-1.1,1.1-2.5,1.7-4,1.7
	c-1.6,0-2.9-0.6-4-1.7c-1.1-1.1-1.7-2.5-1.7-4c0-0.7,0.1-1.3,0.3-1.8s0.4-1,0.8-1.5l-4.3-5.3c-1.1,0.6-2.2,0.9-3.4,0.9
	c-1.2,0-2.4-0.3-3.4-0.9L16.4,37c0.3,0.5,0.6,1,0.8,1.5s0.3,1.1,0.3,1.8c0,1.6-0.5,2.9-1.6,4C14.7,45.4,13.3,46,11.7,46z M5.7,21.7
	c0.8,0,1.4-0.3,1.9-0.8s0.8-1.2,0.8-1.9s-0.3-1.4-0.8-1.9c-0.5-0.5-1.2-0.8-1.9-0.8s-1.4,0.3-1.9,0.8C3.3,17.6,3,18.2,3,19
	s0.3,1.4,0.8,1.9S4.9,21.7,5.7,21.7z M11.7,43c0.8,0,1.4-0.3,1.9-0.8c0.5-0.5,0.8-1.2,0.8-1.9c0-0.8-0.3-1.4-0.8-1.9
	s-1.2-0.8-1.9-0.8c-0.8,0-1.4,0.3-1.9,0.8C9.3,38.9,9,39.5,9,40.3c0,0.8,0.3,1.4,0.8,1.9C10.3,42.7,10.9,43,11.7,43z M24,8.4
	c0.8,0,1.4-0.3,1.9-0.8s0.8-1.2,0.8-1.9c0-0.8-0.3-1.4-0.8-1.9S24.8,3,24,3s-1.4,0.3-1.9,0.8s-0.8,1.2-0.8,1.9s0.3,1.4,0.8,1.9
	S23.2,8.4,24,8.4z M24,29.5c1.2,0,2.3-0.4,3.2-1.3c0.9-0.9,1.3-2,1.3-3.2c0-1.2-0.4-2.3-1.3-3.2c-0.9-0.9-1.9-1.3-3.2-1.3
	c-1.2,0-2.3,0.4-3.2,1.3s-1.3,1.9-1.3,3.2c0,1.2,0.4,2.3,1.3,3.2C21.7,29.1,22.8,29.5,24,29.5z M36.3,43c0.8,0,1.4-0.3,1.9-0.8
	c0.5-0.5,0.8-1.2,0.8-1.9c0-0.8-0.3-1.4-0.8-1.9s-1.2-0.8-1.9-0.8c-0.8,0-1.4,0.3-1.9,0.8s-0.8,1.2-0.8,1.9c0,0.8,0.3,1.4,0.8,1.9
	C34.9,42.7,35.5,43,36.3,43z M42.3,21.7c0.8,0,1.4-0.3,1.9-0.8c0.5-0.5,0.8-1.2,0.8-1.9s-0.3-1.4-0.8-1.9c-0.5-0.5-1.2-0.8-1.9-0.8
	c-0.8,0-1.4,0.3-1.9,0.8c-0.5,0.5-0.8,1.2-0.8,1.9s0.3,1.4,0.8,1.9S41.5,21.7,42.3,21.7z M24,5.7C24,5.7,24,5.7,24,5.7
	C24,5.7,24,5.7,24,5.7C24,5.7,24,5.7,24,5.7C24,5.7,24,5.7,24,5.7C24,5.7,24,5.7,24,5.7C24,5.7,24,5.7,24,5.7C24,5.7,24,5.7,24,5.7
	C24,5.7,24,5.7,24,5.7z M5.7,19C5.7,19,5.7,19,5.7,19C5.7,19,5.7,19,5.7,19C5.7,19,5.7,19,5.7,19C5.7,19,5.7,19,5.7,19
	C5.7,19,5.7,19,5.7,19C5.7,19,5.7,19,5.7,19C5.7,19,5.7,19,5.7,19C5.7,19,5.7,19,5.7,19z M24,25L24,25L24,25L24,25L24,25L24,25
	L24,25L24,25L24,25z M42.3,19L42.3,19L42.3,19L42.3,19L42.3,19L42.3,19L42.3,19L42.3,19L42.3,19z M11.7,40.3L11.7,40.3L11.7,40.3
	L11.7,40.3L11.7,40.3L11.7,40.3L11.7,40.3L11.7,40.3L11.7,40.3z M36.3,40.3L36.3,40.3L36.3,40.3L36.3,40.3L36.3,40.3L36.3,40.3
	L36.3,40.3L36.3,40.3L36.3,40.3z"/>
</svg>
