<?xml version="1.0" encoding="utf-8"?>
<!-- Generator: Adobe Illustrator 21.0.0, SVG Export Plug-In . SVG Version: 6.00 Build 0)  -->
<svg version="1.1" id="Layer_1" xmlns="http://www.w3.org/2000/svg" xmlns:xlink="http://www.w3.org/1999/xlink" x="0px" y="0px"
	 viewBox="0 0 48 48" style="enable-background:new 0 0 48 48;" xml:space="preserve">
<style type="text/css">
	.st0{fill:#EB5342;}
	.st1{fill:#FFFFFF;}
</style>
<circle class="st0" cx="36.5" cy="12.3" r="11.3"/>
<path class="st1" d="M19.9,47c-2.6-0.1-5.1-0.8-7.4-1.9c-2.3-1.1-4.3-2.5-6-4.3c-1.7-1.8-3-3.9-4-6.2C1.5,32.2,1,29.7,1,27
	c0-2.8,0.5-5.4,1.6-7.8s2.5-4.6,4.3-6.4s3.9-3.2,6.4-4.3S18.2,7,21,7c5,0,9.3,1.6,13,4.7c3.7,3.1,5.9,7.1,6.8,11.8h-3
	c-0.6-2.8-1.8-5.3-3.6-7.5s-4-3.8-6.7-4.9v0.9c0,1.2-0.4,2.2-1.2,3.1s-1.8,1.3-2.9,1.3h-4.4v4.4c0,0.6-0.2,1-0.7,1.4
	c-0.4,0.4-1,0.6-1.5,0.6h-4.1V27H18v6.3h-3.4L4.4,23c-0.2,0.7-0.3,1.3-0.3,2C4,25.7,4,26.3,4,27c0,4.5,1.5,8.4,4.6,11.7
	s6.8,5,11.3,5.3V47z M39.5,45.7L32.8,39c-0.7,0.5-1.5,0.9-2.3,1.1c-0.8,0.3-1.7,0.4-2.5,0.4c-2.4,0-4.4-0.8-6-2.5
	c-1.7-1.7-2.5-3.7-2.5-6s0.8-4.4,2.5-6c1.6-1.7,3.7-2.5,6-2.5s4.4,0.8,6,2.5c1.6,1.6,2.5,3.7,2.5,6c0,0.9-0.1,1.7-0.4,2.5
	s-0.7,1.6-1.1,2.3l6.7,6.7L39.5,45.7z M28,37.5c1.5,0,2.8-0.5,3.9-1.6c1.1-1.1,1.6-2.4,1.6-3.9s-0.5-2.8-1.6-3.9
	c-1.1-1.1-2.4-1.6-3.9-1.6s-2.8,0.5-3.9,1.6c-1.1,1.1-1.6,2.4-1.6,3.9s0.5,2.8,1.6,3.9C25.2,37,26.5,37.5,28,37.5z"/>
</svg>
