<?xml version="1.0" encoding="utf-8"?>
<!-- Generator: Adobe Illustrator 21.0.0, SVG Export Plug-In . SVG Version: 6.00 Build 0)  -->
<svg version="1.1" id="Layer_1" xmlns="http://www.w3.org/2000/svg" xmlns:xlink="http://www.w3.org/1999/xlink" x="0px" y="0px"
	 viewBox="0 0 54 54" style="enable-background:new 0 0 54 54;" xml:space="preserve">
<style type="text/css">
	.st0{fill:#EB5342;}
	.st1{fill:#FFFFFF;}
</style>
<g>
	<circle class="st0" cx="28.3" cy="38" r="11.3"/>
	<path class="st1" d="M26.7,19.4c0.9-1.1,1.5-2.2,1.9-3.3s0.6-2.4,0.6-3.9s-0.2-2.8-0.6-4S27.5,6,26.7,4.9c2.5-0.6,4.8-0.2,6.7,1.2
		s2.9,3.4,2.9,6.1s-1,4.8-2.9,6.1S29.2,20,26.7,19.4z M37.5,35.7V31c0-1.7-0.4-3.3-1.3-4.8c-0.9-1.5-2.4-2.7-4.5-3.7
		c5.8,0.7,9.7,1.8,11.8,3.2c2.1,1.4,3.2,3.2,3.2,5.3v4.7H37.5z M43,21.2v-5h-5v-3h5v-5h3v5h5v3h-5v5H43z M18.8,19.7
		c-2.2,0-4-0.7-5.4-2.1s-2.1-3.2-2.1-5.4s0.7-4,2.1-5.4s3.2-2.1,5.4-2.1s4,0.7,5.4,2.1s2.1,3.2,2.1,5.4s-0.7,4-2.1,5.4
		S20.9,19.7,18.8,19.7z M3,35.7V31c0-1.2,0.3-2.2,0.9-3.2c0.6-0.9,1.4-1.7,2.5-2.1c2.4-1.1,4.5-1.8,6.4-2.3s3.9-0.7,5.9-0.7
		s4,0.2,5.9,0.7s4,1.2,6.4,2.3c1,0.5,1.9,1.2,2.5,2.1c0.6,1,1,2,1,3.2v4.7H3z M18.8,16.7c1.3,0,2.4-0.4,3.2-1.3
		c0.8-0.9,1.3-1.9,1.3-3.2S22.8,9.8,22,8.9c-0.9-0.9-1.9-1.3-3.2-1.3c-1.3,0-2.4,0.4-3.2,1.3c-0.8,0.8-1.3,1.9-1.3,3.2
		s0.4,2.4,1.3,3.2C16.4,16.2,17.4,16.7,18.8,16.7z M6,32.7h25.5V31c0-0.5-0.1-1-0.4-1.5s-0.7-0.8-1.3-1.1c-2.3-1.1-4.3-1.8-5.9-2.2
		c-1.6-0.4-3.4-0.5-5.3-0.5c-1.9,0-3.6,0.2-5.2,0.5c-1.6,0.4-3.6,1.1-5.9,2.2C7,28.6,6.6,29,6.3,29.5C6,30,6,30.5,6,31V32.7z
		 M18.8,12.2L18.8,12.2L18.8,12.2L18.8,12.2L18.8,12.2L18.8,12.2L18.8,12.2L18.8,12.2L18.8,12.2z M18.8,32.7L18.8,32.7L18.8,32.7
		L18.8,32.7L18.8,32.7L18.8,32.7L18.8,32.7L18.8,32.7L18.8,32.7z"/>
</g>
</svg>
