<?xml version="1.0" encoding="utf-8"?>
<!-- Generator: Adobe Illustrator 21.0.0, SVG Export Plug-In . SVG Version: 6.00 Build 0)  -->
<svg version="1.1" id="Layer_1" xmlns="http://www.w3.org/2000/svg" xmlns:xlink="http://www.w3.org/1999/xlink" x="0px" y="0px"
	 viewBox="0 0 153 84" style="enable-background:new 0 0 153 84;" xml:space="preserve">
<style type="text/css">
	.st0{fill:#FFFFFF;}
	.st1{fill:#EB5342;}
</style>
<g>
	<g>
		<path class="st0" d="M0.1,61.6V30.9h5.4L16,48.4c-0.1-1.7-0.1-3.3-0.1-4.7V30.9h6.7v30.7h-5.4L6.6,44.2c0.1,1.6,0.2,3.2,0.2,4.8
			v12.6H0.1z"/>
		<path class="st0" d="M28.9,61.6V30.9h18.3v5.7H35.6v6.8H45l-0.3,5.4h-9.1v12.7H28.9z"/>
		<path class="st0" d="M58,61.6v-25h-7.4v-5.7h21.5v5.7h-7.4v25H58z"/>
	</g>
	<g>
		<circle class="st1" cx="71.2" cy="11.5" r="11.3"/>
	</g>
	<g>
		<g>
			<path class="st0" d="M120.2,21.3h23.2c-6.9-7.7-16.9-12.6-28-12.6c-11,0-21,4.8-27.8,12.4c1.9-0.5,4.1-0.7,6.3-0.7
				c4.3,0,9.6,1,15.8,2.9l-2.4,8.8c-5.2-1.6-9.7-2.4-13.4-2.4c-3.1,0-5.5,0.9-7.1,2.8c-1.6,1.9-2.5,4.9-2.5,9.2v8.8
				c0,4.4,0.8,7.5,2.5,9.4c1.6,1.9,4,2.9,7.1,2.9c2.4,0,4.7-0.2,6.9-0.7V51.2h-5.1v-7.6H111V69c-6,2.1-11.7,3.1-17.1,3.1
				c-2.3,0-4.4-0.2-6.3-0.7c6.9,7.6,16.8,12.4,27.8,12.4c11.1,0,21.2-4.9,28-12.6h-23.2V21.3z"/>
			<path class="st0" d="M149.4,30.6H131v11.1H147l-0.4,8.8H131v11.5h18.4c2.2-4.8,3.4-10.1,3.4-15.7
				C152.9,40.6,151.6,35.3,149.4,30.6z"/>
		</g>
	</g>
</g>
</svg>
