<?xml version="1.0" encoding="utf-8"?>
<!-- Generator: Adobe Illustrator 21.0.0, SVG Export Plug-In . SVG Version: 6.00 Build 0)  -->
<svg version="1.1" id="Layer_1" xmlns="http://www.w3.org/2000/svg" xmlns:xlink="http://www.w3.org/1999/xlink" x="0px" y="0px"
	 viewBox="0 0 153 84" style="enable-background:new 0 0 153 84;" xml:space="preserve">
<style type="text/css">
	.st0{fill:#272A31;}
	.st1{fill:#EB5342;}
</style>
<g>
	<g>
		<path class="st0" d="M-0.1,61.3V30.7h5.4l10.5,17.5c-0.1-1.7-0.1-3.3-0.1-4.7V30.7h6.7v30.7h-5.4L6.4,43.9
			c0.1,1.6,0.2,3.2,0.2,4.8v12.6H-0.1z"/>
		<path class="st0" d="M28.7,61.3V30.7H47v5.7H35.4v6.8h9.4l-0.3,5.4h-9.1v12.7H28.7z"/>
		<path class="st0" d="M57.9,61.3v-25h-7.4v-5.7H72v5.7h-7.4v25H57.9z"/>
	</g>
	<g>
		<circle class="st1" cx="71" cy="11.3" r="11.3"/>
	</g>
	<g>
		<g>
			<path class="st0" d="M120,21.1h23.2c-6.9-7.7-16.9-12.6-28-12.6c-11,0-21,4.8-27.8,12.4c1.9-0.5,4.1-0.7,6.3-0.7
				c4.3,0,9.6,1,15.8,2.9l-2.4,8.8c-5.2-1.6-9.7-2.4-13.4-2.4c-3.1,0-5.5,0.9-7.1,2.8c-1.6,1.9-2.5,4.9-2.5,9.2v8.8
				c0,4.4,0.8,7.5,2.5,9.4c1.6,1.9,4,2.9,7.1,2.9c2.4,0,4.7-0.2,6.9-0.7V50.9h-5.1v-7.6h15.2v25.4c-6,2.1-11.7,3.1-17.1,3.1
				c-2.3,0-4.4-0.2-6.3-0.7c6.9,7.6,16.8,12.4,27.8,12.4c11.1,0,21.2-4.9,28-12.6H120V21.1z"/>
			<path class="st0" d="M149.3,30.3h-18.4v11.1h15.9l-0.4,8.8h-15.5v11.5h18.4c2.2-4.8,3.4-10.1,3.4-15.7
				C152.7,40.4,151.5,35.1,149.3,30.3z"/>
		</g>
	</g>
</g>
</svg>
