<?xml version="1.0" encoding="utf-8"?>
<!-- Generator: Adobe Illustrator 21.0.0, SVG Export Plug-In . SVG Version: 6.00 Build 0)  -->
<svg version="1.1" id="Layer_1" xmlns="http://www.w3.org/2000/svg" xmlns:xlink="http://www.w3.org/1999/xlink" x="0px" y="0px"
	 viewBox="0 0 280 56" style="enable-background:new 0 0 280 56;" xml:space="preserve">
<style type="text/css">
	.st0{fill:#283B32;}
</style>
<g>
	<g>
		<path class="st0" d="M34.4,17.8c0,3.8,0,7.5,0,11.2c0,3.7,0.2,7.4,0.5,11.1h-0.2c-0.5-1-1.2-2.5-2.3-4.3C31.5,33.9,30.3,32,29,30
			L11,2.4c-0.4-0.5-1-0.9-1.6-0.9H1.6c-1.1,0-1.9,0.9-1.9,1.9v50.3c0,1.1,0.9,1.9,1.9,1.9h7.1c1.1,0,1.9-0.9,1.9-1.9V39.2
			c0-3.8,0-7.5,0-11.1c0-3.6-0.2-7.4-0.5-11.4h0.2c0.2,0.6,0.6,1.4,1.1,2.4c0.5,0.9,1,2,1.7,3.1c0.6,1.1,1.3,2.3,2,3.6
			c0.7,1.2,1.4,2.4,2.2,3.6L34,54.8c0.4,0.5,1,0.9,1.6,0.9h7.8c1.1,0,1.9-0.9,1.9-1.9V3.5c0-1.1-0.9-1.9-1.9-1.9h-7.1
			c-1.1,0-1.9,0.9-1.9,1.9V17.8z"/>
		<path class="st0" d="M59.1,55.6H67c1.1,0,1.9-0.9,1.9-1.9V35.9c0-1.1,0.9-1.9,1.9-1.9h16.9c1.1,0,1.9-0.9,1.9-1.9v-5.2
			c0-1.1-0.9-1.9-1.9-1.9H70.9c-1.1,0-1.9-0.9-1.9-1.9V12.6c0-1.1,0.9-1.9,1.9-1.9h18.7c1.1,0,1.9-0.9,1.9-1.9V3.5
			c0-1.1-0.9-1.9-1.9-1.9H59.1c-1.1,0-1.9,0.9-1.9,1.9v50.3C57.2,54.8,58.1,55.6,59.1,55.6z"/>
		<path class="st0" d="M96.7,10.8h11.1c1.1,0,1.9,0.9,1.9,1.9v41c0,1.1,0.9,1.9,1.9,1.9h7.9c1.1,0,1.9-0.9,1.9-1.9v-41
			c0-1.1,0.9-1.9,1.9-1.9h11.4c1.1,0,1.9-0.9,1.9-1.9V3.5c0-1.1-0.9-1.9-1.9-1.9H96.7c-1.1,0-1.9,0.9-1.9,1.9v5.4
			C94.8,9.9,95.7,10.8,96.7,10.8z"/>
		<path class="st0" d="M139.5,35.1h15c1.1,0,1.9-0.9,1.9-1.9v-4.8c0-1.1-0.9-1.9-1.9-1.9h-15c-1.1,0-1.9,0.9-1.9,1.9v4.8
			C137.6,34.3,138.5,35.1,139.5,35.1z"/>
		<path class="st0" d="M190.7,34.6h5.1c1.1,0,1.9,0.9,1.9,1.9v9.2c0,0.9-0.6,1.7-1.5,1.9c-1.4,0.3-3.1,0.4-5.2,0.4
			c-5.2,0-9.1-1.7-11.9-5c-2.8-3.4-4.2-8.1-4.2-14.4c0-3.5,0.5-6.5,1.4-9c0.9-2.5,2.1-4.5,3.7-6.1c1.5-1.6,3.4-2.8,5.5-3.5
			c2.1-0.7,4.3-1.1,6.7-1.1c2.1,0,4.2,0.2,6.3,0.7c1.5,0.3,2.9,0.8,4.3,1.3c1,0.4,2.2-0.2,2.5-1.2l1.3-4.3c0.3-0.9-0.2-2-1.1-2.3
			c-1.7-0.7-3.5-1.2-5.5-1.6c-2.6-0.6-5.6-0.9-9-0.9c-4.1,0-7.8,0.6-11.3,1.8c-3.5,1.2-6.5,3-9,5.4c-2.5,2.3-4.5,5.3-6,8.8
			c-1.5,3.5-2.2,7.5-2.2,12.1c0,4.5,0.7,8.5,2.2,12c1.5,3.5,3.5,6.4,6,8.8c2.5,2.4,5.6,4.2,9,5.4c3.5,1.2,7.2,1.8,11.2,1.8
			c3.8,0,7.2-0.3,10.2-0.9c2.5-0.5,4.7-1.2,6.6-1.9c0.7-0.3,1.2-1,1.2-1.8V27.8c0-1.1-0.9-1.9-1.9-1.9h-16.3c-1.1,0-1.9,0.9-1.9,1.9
			v4.9C188.8,33.7,189.6,34.6,190.7,34.6z"/>
		<path class="st0" d="M231.6,10.6h20.9c1.1,0,1.9-0.9,1.9-1.9V3.5c0-1.1-0.9-1.9-1.9-1.9h-31.4c-1.1,0-1.9,0.9-1.9,1.9v5.3
			c0,1.1,0.9,1.9,1.9,1.9h9.8H231.6z"/>
		<path class="st0" d="M229,33.2h-5.6c-1.1,0-1.9-0.9-1.9-1.9v-7.5c0-1.1,0.9-1.9,1.9-1.9h4.2c1.1,0,1.9-0.9,1.9-1.9v-1.7
			c0-1.1-0.9-1.9-1.9-1.9H216c-1.1,0-1.9,0.9-1.9,1.9v11.7c0,1.1,0.9,1.9,1.9,1.9h1.3c1.1,0,1.9,0.9,1.9,1.9v20
			c0,1.1,0.9,1.9,1.9,1.9h31.6c1.1,0,1.9-0.9,1.9-1.9v-5.3c0-1.1-0.9-1.9-1.9-1.9h-19.9c-1.1,0-1.9-0.9-1.9-1.9v-9.5
			C231,34.1,230.1,33.2,229,33.2z"/>
		<path class="st0" d="M260.1,26.4h5.3c1.1,0,1.9-0.9,1.9-1.9v-5.3c0-1.1-0.9-1.9-1.9-1.9h-5.3c-1.1,0-1.9,0.9-1.9,1.9v5.3
			C258.2,25.6,259,26.4,260.1,26.4z"/>
		<path class="st0" d="M272.6,32v2.8c0,1.1,0.9,1.9,1.9,1.9h2.8c1.1,0,1.9-0.9,1.9-1.9V32c0-1.1-0.9-1.9-1.9-1.9h-2.8
			C273.4,30.1,272.6,30.9,272.6,32z"/>
		<path class="st0" d="M233.2,32h13.9v0v-7.1c0-1.1-0.9-1.9-1.9-1.9h-10.1c-1.1,0-1.9,0.9-1.9,1.9V32L233.2,32z"/>
		<path class="st0" d="M253.8,36.9v1c0,1.1,0.9,1.9,1.9,1.9h1c1.1,0,1.9-0.9,1.9-1.9v-1c0-1.1-0.9-1.9-1.9-1.9h-1
			C254.6,35,253.8,35.9,253.8,36.9z"/>
	</g>
</g>
</svg>
