<?xml version="1.0" encoding="utf-8"?>
<!-- Generator: Adobe Illustrator 21.0.0, SVG Export Plug-In . SVG Version: 6.00 Build 0)  -->
<svg version="1.1" id="Layer_1" xmlns="http://www.w3.org/2000/svg" xmlns:xlink="http://www.w3.org/1999/xlink" x="0px" y="0px"
	 viewBox="0 0 54 54" style="enable-background:new 0 0 54 54;" xml:space="preserve">
<style type="text/css">
	.st0{fill:#FFFFFF;}
</style>
<path class="st0" d="M53.4,10.9c-0.1,0.1-0.2,0.3-0.3,0.4c-1,1.3-2.1,2.6-3.4,3.7c-0.4,0.4-0.9,0.7-1.3,1.1
	c-0.1,0.1-0.1,0.1-0.1,0.3c0,1.2,0,2.4-0.1,3.6c-0.3,3.4-1.1,6.6-2.4,9.7c-0.9,2.3-2.1,4.4-3.6,6.4c-1.3,1.7-2.7,3.4-4.3,4.8
	c-2.2,2-4.7,3.7-7.4,4.9c-2.2,1-4.4,1.7-6.7,2.2c-1.4,0.3-2.7,0.5-4.1,0.6c-1.4,0.1-2.7,0.1-4.1,0.1c-1.3-0.1-2.6-0.2-3.9-0.4
	c-3-0.5-5.8-1.5-8.5-2.8c-0.9-0.5-1.8-1-2.7-1.5c0,0-0.1,0-0.1-0.1c6,0.6,11.3-0.9,16.1-4.5c-2.3-0.1-4.4-0.8-6.3-2.2
	c-1.9-1.4-3.1-3.2-3.9-5.4c1.6,0.3,3.3,0.2,4.9-0.2c-2.5-0.6-4.6-1.8-6.3-3.9c-1.6-2-2.4-4.4-2.4-7c1.5,0.8,3.2,1.3,4.9,1.4
	c-2.4-1.7-3.9-3.9-4.6-6.6C2.2,12.5,2.7,9.9,4,7.4c5.9,7,13.4,10.8,22.6,11.4c0-0.3-0.1-0.5-0.1-0.7c-0.5-3.2,0.3-6.1,2.3-8.6
	c1.7-2.1,3.8-3.4,6.4-3.9c3.3-0.6,6.2,0.1,8.9,2.2c0.4,0.3,0.7,0.6,1.1,1c0.1,0.1,0.1,0.1,0.2,0.1c2.1-0.4,4-1.1,5.9-2.1
	c0.3-0.2,0.6-0.3,0.9-0.5c-0.9,2.6-2.4,4.6-4.7,6c0.3,0.1,1.7-0.2,3.1-0.6c1-0.3,2-0.7,3-1C53.5,10.6,53.4,10.8,53.4,10.9z"/>
</svg>
